<svg xmlns="http://www.w3.org/2000/svg" version="1.1" xmlns:xlink="http://www.w3.org/1999/xlink" xmlns:svgjs="http://svgjs.dev/svgjs" viewBox="0 0 14.759298555075263 4.813673055271317"><g transform="matrix(1,0,0,1,3.9653500443697434,1.2470846434923517)"><g><path d=" M 0.128854799089647 0.3012300932360621 Q 0.20309564359825155 0.16213517766246954 0.33963053005085764 0.08448096099254987 Q 0.4761654165034637 0.006826744322630196 0.6536607688918517 0.006826744322630196 Q 0.8789433315386517 0.006826744322630196 1.0325450787978336 0.12714811300898932 Q 1.1861468260570154 0.24746948169534844 1.2305206641541124 0.45397849745491514 L 0.8704099011353639 0.45397849745491514 Q 0.8379828656028698 0.38571105422861207 0.7808088819008411 0.34987064653480304 Q 0.7236348981988123 0.3140302388409939 0.648540710649879 0.3140302388409939 Q 0.5324860571651637 0.3140302388409939 0.4633652708985319 0.3968045137528864 Q 0.3942444846319001 0.47957878866477877 0.3942444846319001 0.6178203611980425 Q 0.3942444846319001 0.7577686198119638 0.4633652708985319 0.8405428947238561 Q 0.5324860571651637 0.9233171696357486 0.648540710649879 0.9233171696357486 Q 0.7236348981988123 0.9233171696357486 0.7808088819008411 0.8874767619419395 Q 0.8379828656028698 0.8516363542481304 0.8704099011353639 0.7833689110218274 L 1.2305206641541124 0.7833689110218274 Q 1.1861468260570154 0.9898779267813941 1.0325450787978336 1.110199295467753 Q 0.8789433315386517 1.2305206641541122 0.6536607688918517 1.2305206641541122 Q 0.4761654165034637 1.2305206641541122 0.33963053005085764 1.1528664474841925 Q 0.20309564359825155 1.0752122308142729 0.128854799089647 0.9361173152406804 Q 0.054613954581042436 0.797022399667088 0.054613954581042436 0.6178203611980425 Q 0.054613954581042436 0.44032500880965453 0.128854799089647 0.3012300932360621 M 2.0155887611712817 1.2219872337508244 L 1.7766527098792213 0.7782488527798546 L 1.7408123021854123 0.7782488527798546 L 1.7408123021854123 1.2219872337508244 L 1.4063018303765273 1.2219872337508244 L 1.4063018303765273 0.018773546887233206 L 1.9336678292997185 0.018773546887233206 Q 2.078736146155612 0.018773546887233206 2.179430624914409 0.06912078626663165 Q 2.2801251036732064 0.11946802564603032 2.3313256860929332 0.2073623587998954 Q 2.382526268512661 0.2952566919537606 2.382526268512661 0.4044846011158455 Q 2.382526268512661 0.5273659989231909 2.315112168326687 0.6203803903190288 Q 2.2476980681407124 0.7133947817148667 2.1179899260107367 0.7526485615699909 L 2.389353012835291 1.2219872337508244 L 2.0155887611712817 1.2219872337508244 M 1.7408123021854123 0.5495529179717394 L 1.9063608520091972 0.5495529179717394 Q 1.9746282952355 0.5495529179717394 2.0087620168486517 0.5171258824392455 Q 2.0428957384618034 0.4846988469067516 2.0428957384618034 0.4232581480030788 Q 2.0428957384618034 0.36523082126072115 2.007908673808323 0.3319504426878984 Q 1.9729216091548425 0.2986700641150757 1.9063608520091972 0.2986700641150757 L 1.7408123021854123 0.2986700641150757 L 1.7408123021854123 0.5495529179717394 M 3.6454923017411494 0.018773546887233206 L 3.22223415373807 0.8396895516835274 L 3.22223415373807 1.2219872337508244 L 2.8860169958485278 1.2219872337508244 L 2.8860169958485278 0.8396895516835274 L 2.462758847845449 0.018773546887233206 L 2.8450565299127457 0.018773546887233206 L 3.0566856039142856 0.482992160826094 L 3.268314677915825 0.018773546887233206 L 3.6454923017411494 0.018773546887233206 M 4.665218068049356 0.6186737042383712 Q 4.614870828669957 0.708274723472894 4.513323006870832 0.7620353350136077 Q 4.411775185071706 0.8157959465543213 4.265000182135155 0.8157959465543213 L 4.09945163231137 0.8157959465543213 L 4.09945163231137 1.2219872337508244 L 3.7649411605024845 1.2219872337508244 L 3.7649411605024845 0.018773546887233206 L 4.265000182135155 0.018773546887233206 Q 4.410068498991048 0.018773546887233206 4.511616320790174 0.06997412930696045 Q 4.6131641425893 0.12117471172668792 4.664364725009027 0.2116290740015394 Q 4.715565307428754 0.3020834362763909 4.715565307428754 0.4198447758417636 Q 4.715565307428754 0.5290726850038485 4.665218068049356 0.6186737042383712 M 4.3742280912972396 0.4198447758417636 Q 4.3742280912972396 0.2884299476311303 4.232573146602661 0.2884299476311303 L 4.09945163231137 0.2884299476311303 L 4.09945163231137 0.5495529179717394 L 4.232573146602661 0.5495529179717394 Q 4.3742280912972396 0.5495529179717394 4.3742280912972396 0.4198447758417636 M 5.773687343837692 0.018773546887233206 L 5.773687343837692 0.28501657546981507 L 5.452830360674068 0.28501657546981507 L 5.452830360674068 1.2219872337508244 L 5.118319888865184 1.2219872337508244 L 5.118319888865184 0.28501657546981507 L 4.800876277862874 0.28501657546981507 L 4.800876277862874 0.018773546887233206 L 5.773687343837692 0.018773546887233206 M 6.181591983857356 1.1545731335648501 Q 6.039937039162777 1.0752122308142729 5.957162764250884 0.9344106291600228 Q 5.874388489338992 0.7936090275057728 5.874388489338992 0.6161136751173849 Q 5.874388489338992 0.4386183227289969 5.957162764250884 0.297816721074747 Q 6.039937039162777 0.15701511942049695 6.181591983857356 0.07850755971024848 Q 6.323246928551935 0 6.492208850537034 0 Q 6.662877458602792 0 6.803679060257043 0.07850755971024848 Q 6.944480661911292 0.15701511942049695 7.026401593782856 0.297816721074747 Q 7.10832252565442 0.4386183227289969 7.10832252565442 0.6161136751173849 Q 7.10832252565442 0.7936090275057728 7.026401593782856 0.9344106291600228 Q 6.944480661911292 1.0752122308142729 6.802825717216714 1.1545731335648501 Q 6.6611707725221345 1.2339340363154274 6.492208850537034 1.2339340363154274 Q 6.323246928551935 1.2339340363154274 6.181591983857356 1.1545731335648501 M 6.694451151094958 0.8396895516835274 Q 6.768691995603562 0.7560619337313061 6.768691995603562 0.6161136751173849 Q 6.768691995603562 0.47275204434214846 6.694451151094958 0.3899777694302561 Q 6.620210306586353 0.3072034945183636 6.492208850537034 0.3072034945183636 Q 6.362500708407059 0.3072034945183636 6.289113206938783 0.3899777694302561 Q 6.215725705470508 0.47275204434214846 6.215725705470508 0.6161136751173849 Q 6.215725705470508 0.7577686198119638 6.289113206938783 0.8405428947238561 Q 6.362500708407059 0.9233171696357486 6.492208850537034 0.9233171696357486 Q 6.620210306586353 0.9233171696357486 6.694451151094958 0.8396895516835274 M 8.1758330021926 0.6186737042383712 Q 8.125485762813202 0.708274723472894 8.023937941014076 0.7620353350136077 Q 7.92239011921495 0.8157959465543213 7.775615116278399 0.8157959465543213 L 7.610066566454614 0.8157959465543213 L 7.610066566454614 1.2219872337508244 L 7.2755560946457285 1.2219872337508244 L 7.2755560946457285 0.018773546887233206 L 7.775615116278399 0.018773546887233206 Q 7.920683433134292 0.018773546887233206 8.022231254933418 0.06997412930696045 Q 8.123779076732545 0.12117471172668792 8.174979659152271 0.2116290740015394 Q 8.226180241572 0.3020834362763909 8.226180241572 0.4198447758417636 Q 8.226180241572 0.5290726850038485 8.1758330021926 0.6186737042383712 M 7.8848430254404835 0.4198447758417636 Q 7.8848430254404835 0.2884299476311303 7.743188080745904 0.2884299476311303 L 7.610066566454614 0.2884299476311303 L 7.610066566454614 0.5495529179717394 L 7.743188080745904 0.5495529179717394 Q 7.8848430254404835 0.5495529179717394 7.8848430254404835 0.4198447758417636 M 8.71256244096065 0.018773546887233206 L 8.71256244096065 1.2219872337508244 L 8.378051969151764 1.2219872337508244 L 8.378051969151764 0.018773546887233206 L 8.71256244096065 0.018773546887233206 M 9.681931801118516 1.0257183344752032 L 9.255260280954122 1.0257183344752032 L 9.190406209889135 1.2219872337508244 L 8.838828877273674 1.2219872337508244 L 9.27744720000267 0.018773546887233206 L 9.663158254231282 0.018773546887233206 L 10.100069890879622 1.2219872337508244 L 9.746785872183503 1.2219872337508244 L 9.681931801118516 1.0257183344752032 M 9.598304183166295 0.7697154223765668 L 9.468596041036319 0.38059099598663937 L 9.340594584987 0.7697154223765668 L 9.598304183166295 0.7697154223765668" fill="#6839b4" fill-rule="nonzero"></path></g><g><path d=" M 0.06657293950104766 2.3015242152826807 Q 0.038874709197692064 2.2757697204392096 0.038874709197692064 2.23786687897146 Q 0.038874709197692064 2.1989921697737675 0.06657293950104766 2.1727517410653254 Q 0.09427116980440325 2.1465113123568833 0.13800521765180682 2.1465113123568833 Q 0.1807673977692681 2.1465113123568833 0.20846562807262367 2.1727517410653254 Q 0.23616385837597928 2.1989921697737675 0.23616385837597928 2.23786687897146 Q 0.23616385837597928 2.2757697204392096 0.20846562807262367 2.3015242152826807 Q 0.1807673977692681 2.3272787101261514 0.13800521765180682 2.3272787101261514 Q 0.09427116980440325 2.3272787101261514 0.06657293950104766 2.3015242152826807 M 0.35957397646621114 1.797124863442626 Q 0.40330802431361473 1.7179176434523284 0.48154337657397 1.6736976617399537 Q 0.5597787288343252 1.629477680027579 0.65890923728844 1.629477680027579 Q 0.7803927035312277 1.629477680027579 0.8668889314960926 1.693620950203771 Q 0.9533851594609574 1.7577642203799628 0.9825411913592265 1.868557141593385 L 0.7998300581300738 1.868557141593385 Q 0.7794208358012855 1.825794961475924 0.7420039281985068 1.803442003687251 Q 0.7045870205957282 1.781089045898578 0.6569655018285554 1.781089045898578 Q 0.5801879511631136 1.781089045898578 0.5325664323959408 1.8345417710454046 Q 0.48494491362876807 1.8879944961922313 0.48494491362876807 1.977406327346923 Q 0.48494491362876807 2.0668181585016145 0.5325664323959408 2.120270883648441 Q 0.5801879511631136 2.173723608795268 0.6569655018285554 2.173723608795268 Q 0.7045870205957282 2.173723608795268 0.7420039281985068 2.151370651006595 Q 0.7794208358012855 2.129017693217922 0.7998300581300738 2.0862555131004608 L 0.9825411913592265 2.0862555131004608 Q 0.9533851594609574 2.197048434313883 0.8668889314960926 2.260705770625104 Q 0.7803927035312277 2.3243631069363246 0.65890923728844 2.3243631069363246 Q 0.5597787288343252 2.3243631069363246 0.48154337657397 2.2801431252239497 Q 0.40330802431361473 2.235923143511575 0.35957397646621114 2.157201857386249 Q 0.3158399286188076 2.0784805712609224 0.3158399286188076 1.977406327346923 Q 0.3158399286188076 1.8763320834329236 0.35957397646621114 1.797124863442626 M 1.240595326353618 2.2816009268188635 Q 1.1604162386333783 2.2368950112415176 1.1132806537311766 2.1567159235212774 Q 1.0661450688289749 2.0765368358010377 1.0661450688289749 1.9764344596169807 Q 1.0661450688289749 1.8763320834329236 1.1132806537311766 1.7966389295776548 Q 1.1604162386333783 1.7169457757223863 1.240595326353618 1.6722398601450403 Q 1.320774414073858 1.6275339445676944 1.4169893193381458 1.6275339445676944 Q 1.5132042246024338 1.6275339445676944 1.5933833123226737 1.6722398601450403 Q 1.6735624000429135 1.7169457757223863 1.7197261172151728 1.7966389295776548 Q 1.765889834387432 1.8763320834329236 1.765889834387432 1.9764344596169807 Q 1.765889834387432 2.0765368358010377 1.7192401833502016 2.1567159235212774 Q 1.672590532312971 2.2368950112415176 1.5928973784577023 2.2816009268188635 Q 1.5132042246024338 2.326306842396209 1.4169893193381458 2.326306842396209 Q 1.320774414073858 2.326306842396209 1.240595326353618 2.2816009268188635 M 1.5477055290153854 2.120270883648441 Q 1.5967848493774714 2.065846290771672 1.5967848493774714 1.9764344596169807 Q 1.5967848493774714 1.8860507607323467 1.5477055290153854 1.8321121017205488 Q 1.498626208653299 1.7781734427087512 1.4169893193381458 1.7781734427087512 Q 1.3343805622930502 1.7781734427087512 1.285301241930964 1.8316261678555776 Q 1.2362219215688777 1.8850788930024043 1.2362219215688777 1.9764344596169807 Q 1.2362219215688777 2.0668181585016145 1.285301241930964 2.1207568175134126 Q 1.3343805622930502 2.1746954765252102 1.4169893193381458 2.1746954765252102 Q 1.498626208653299 2.1746954765252102 1.5477055290153854 2.120270883648441 M 2.6405812313208834 1.6372526218671175 L 2.6405812313208834 2.319503768286613 L 2.47439184950075 2.319503768286613 L 2.47439184950075 1.9103474539809042 L 2.321808615899809 2.319503768286613 L 2.187690869167771 2.319503768286613 L 2.0341357678368874 1.9093755862509618 L 2.0341357678368874 2.319503768286613 L 1.867946386016754 2.319503768286613 L 1.867946386016754 1.6372526218671175 L 2.0642636674650987 1.6372526218671175 L 2.2557216102637323 2.109580338619076 L 2.445235817602481 1.6372526218671175 L 2.6405812313208834 1.6372526218671175" fill="#6839b4" fill-rule="nonzero"></path></g><g clip-path="url(#SvgjsClipPath1001)"><g clip-path="url(#SvgjsClipPath1000667490a3-2513-4b45-a7ad-65d1133334eb)"><path d=" M -1.8919141543656874 0.2669883050437586 L -1.905116927768449 0.25935640820815953 L -2.1606222226308294 0.11185061602600854 L -2.201985470988473 0.08797543073817216 L -2.372744061149673 -0.01059643467455229 L -2.386222317459602 -0.018381377569688606 L -2.388803694330467 -0.019871025882518767 L -2.4733871499014715 -0.06870292194558603 L -2.5630619377197554 -0.12049370849304442 L -2.810843508110815 0.022553341821250572 C -2.9661954616119184 0.11221792656889884 -3.1136808476527977 0.19734214488360324 -3.2851638558291425 0.29642416382811954 L -3.2851638558291425 2.023079604458492 C -3.1136808476527977 2.1221616234030085 -2.9661954616119184 2.2072960447883485 -2.810843508110815 2.296960629535997 L -2.6140364786163452 2.4105412118540244 L -2.6140364786163452 0.7133726453611915 C -2.614036015614558 0.6951470781250795 -2.6043126062600668 0.6783061331231277 -2.5885288020267474 0.6691933495080418 C -2.446899978530864 0.5873953322206338 -2.3244223186183954 0.5166880527143531 -2.2019446587059286 0.4460011793493439 C -2.102097409463724 0.38829261183310626 -2.002168535656434 0.3306758719525912 -1.8919141543656874 0.2669883050437586 Z M -2.5120057722580764 1.576685061070424 C -2.3811615944242295 1.6522694083406309 -2.2659485208044705 1.718773022744952 -2.150939508597428 1.7851542003016425 C -2.0359304963903853 1.851535377858332 -1.9208194534769845 1.9179777738388386 -1.7898834480074166 1.993602933391588 C -1.618400439831072 1.8945209144470716 -1.4709048507195568 1.8093864930617316 -1.3155426941478183 1.7197117052434467 L -1.0677611237567586 1.576685061070423 L -1.0677611237567586 0.742818707216188 L -1.3155426941478183 0.5997920630431643 C -1.470874241507648 0.5101274782955161 -1.618431049042979 0.4249624476982682 -1.7898834480074166 0.325900834895023 C -1.9207378289118995 0.4014749790945943 -2.035940699461023 0.46797859349891424 -2.150939508597428 0.534359771055605 C -2.265938317733835 0.6007409486122968 -2.3810697667885066 0.6671935476634379 -2.5120057722580764 0.7428085041455514 Z M -0.5461291375001003 0.15123446868030088 C -0.7077457763716004 0.05793759078629768 -0.8611387403106248 -0.03058425005013743 -1.042233041025919 -0.1352269424911794 L -1.3155018818652737 -0.2929766175917015 C -1.4708640384370124 -0.38265140540998543 -1.6183596275485277 -0.46778582679532643 -1.789842635724872 -0.5668678457398428 C -1.920778641194442 -0.49124268618709244 -2.0358386687546624 -0.4248308994184939 -2.1508986963148833 -0.35840890957926075 C -2.2507969609102663 -0.3007411543455656 -2.3506850224350133 -0.24311421139441486 -2.4609802160083025 -0.17940623834431102 L -2.4222085475921613 -0.1569594829454911 L -2.1508986963148833 -0.0003321456149099067 C -2.028461848684959 0.07035472775009943 -1.9059433764899478 0.14106200725637996 -1.7643247560646704 0.22286002454380605 C -1.581842837742904 0.3282985564944422 -1.4274907851641114 0.4173917692864849 -1.264496731756775 0.5114742836194457 L -0.9911972817055115 0.669244364861239 C -0.9754134774721988 0.6783571484763375 -0.9656900681177198 0.6951980934782958 -0.9656896051159434 0.7134236607143716 L -0.9656896051159434 1.5177725312191586 L -0.8616795030543227 1.4576968513154085 L -0.851741712255027 1.4519627256180743 L -0.8164799001376104 1.43155658434642 L -0.5460985282881934 1.2754496036182663 L -0.2945520248325151 1.130249705399812 L -0.2945520248325151 0.296464976110663 Z M -0.9912176878467847 1.6503104187785522 L -1.2645375440393196 1.808090703090982 C -1.427531597446654 1.9021630143533075 -1.5818530408135396 1.991256227145349 -1.7643553652765793 2.0966947590959863 C -1.7801395704814185 2.1058077742199437 -1.7995865132508744 2.1058077742199437 -1.8153707184557137 2.0966947590959863 C -1.9569791358103554 2.0148865387379242 -2.0794567957228267 1.9441894623022795 -2.201934455635293 1.8735025889372692 C -2.301822517160038 1.8158450367742118 -2.4017105786847854 1.7582078907524246 -2.5119853661168055 1.694510120772956 L -2.5119853661168055 2.4694537417052906 C -2.381049360647238 2.5450686981874044 -2.2659995361576506 2.61149068802664 -2.1509191024561565 2.6779126778658737 C -2.035838668754665 2.7443346677051066 -1.9207990473357133 2.8107362514030703 -1.7898630418661454 2.8863614109558196 C -1.6183800336898009 2.7872793920113033 -1.4708844445782856 2.7021449706259633 -1.3155222880065471 2.6124701828076775 L -1.042233041025919 2.4547205077071554 C -0.8611591464518962 2.3500880183367494 -0.7077661825128736 2.2615559744296787 -0.5461495436413717 2.1682590965356754 L -0.29460304018569294 2.0230591983172213 L -0.29460304018569294 1.248105374314251 L -0.49511378432096587 1.3638694137483443 C -0.6567712354750106 1.4571458855010742 -0.810143793272764 1.5456779294081457 -0.9912176878467847 1.6503104187785522 Z" fill="#4d7fff" transform="matrix(1,0,0,1,0,0)" fill-rule="nonzero"></path></g></g></g><defs><clipPath id="SvgjsClipPath1001"><path d=" M -3.2851332466172334 -0.5668678457398417 h 2.9905200033609045 v 3.4532394597662965 h -2.9905200033609045 Z"></path></clipPath><clipPath id="SvgjsClipPath1000667490a3-2513-4b45-a7ad-65d1133334eb"><path d=" M -3.2851332466172334 -0.5668678457398417 L -0.29461324325632887 -0.5668678457398417 L -0.29461324325632887 2.886371614026455 L -3.2851332466172334 2.886371614026455 Z"></path></clipPath></defs></svg>