<?xml version="1.0" standalone="no"?>
<!DOCTYPE svg PUBLIC "-//W3C//DTD SVG 1.1//EN" "http://www.w3.org/Graphics/SVG/1.1/DTD/svg11.dtd">

<svg width="135" height="50" viewBox="0 0 135 50" 
  xmlns="http://www.w3.org/2000/svg"
  xmlns:xlink="http://www.w3.org/1999/xlink">


<polyline points="0.0, 24.48334022068602 0.7988165680473372, 24.020996111098995 1.5976331360946745, 25.912360780427928 2.396449704142012, 27.769733191842423 3.195266272189349, 29.760726544988053 3.994082840236686, 31.432101291371072 4.792899408284024, 26.193888762900574 5.591715976331361, 25.971747397807025 6.390532544378698, 25.958507974401957 7.189349112426036, 21.82442338655056 7.988165680473372, 23.39949685409101 8.78698224852071, 21.707447770442926 9.585798816568047, 24.755468301408705 10.384615384615385, 26.418232461221137 11.183431952662723, 26.520809128221217 11.982248520710058, 28.29915141670634 12.781065088757396, 28.72697142561854 13.579881656804734, 30.686529786226757 14.378698224852071, 28.105870262310408 15.177514792899409, 29.6669421309508 15.976331360946745, 32.08775296833636 16.775147928994084, 30.560110825421866 17.57396449704142, 31.842104493270906 18.37278106508876, 35.58773090768109 19.171597633136095, 32.201361656681094 19.970414201183434, 32.284656560044375 20.76923076923077, 29.84369209938994 21.56804733727811, 27.218478410552294 22.366863905325445, 36.67305376135158 23.16568047337278, 31.26683549620196 23.964497041420117, 31.07222375722003 24.763313609467456, 30.43778731276979 25.562130177514792, 28.578349234614443 26.36094674556213, 27.6830844535483 27.159763313609467, 22.419372554674492 27.958579881656807, 25.82719457046704 28.757396449704142, 26.903935619368685 29.55621301775148, 27.911114208231364 30.355029585798817, 29.97094629982306 31.153846153846157, 30.77556202527048 31.95266272189349, 30.74132982144248 32.751479289940825, 32.603090452440526 33.55029585798817, 31.46997336365806 34.349112426035504, 30.804578633507727 35.14792899408284, 28.0496377466523 35.94674556213018, 30.848859236453425 36.74556213017752, 30.482473354362977 37.54437869822485, 31.409457255464506 38.34319526627219, 31.007116109224153 39.142011834319526, 29.696838455652834 39.94082840236687, 33.259021053021534 40.7396449704142, 32.91851282860389 41.53846153846154, 34.32995168877446 42.337278106508876, 37.47982254146937 43.13609467455622, 42.945790567007165 43.93491124260355, 38.7164108885303 44.73372781065089, 42.000459965545055 45.532544378698226, 42.329838153824284 46.33136094674556, 50.0 47.1301775147929, 43.42534892950912 47.928994082840234, 31.300920178903763 48.72781065088758, 32.30361784745768 49.52662721893491, 30.828145951976143 50.32544378698225, 31.217005494283534 51.124260355029584, 33.53058637958817 51.92307692307693, 30.85256542716103 52.72189349112426, 31.283873123114443 53.5207100591716, 29.099979240565048 54.319526627218934, 30.818317629787657 55.11834319526627, 31.610339087194877 55.91715976331361, 31.437130750709528 56.71597633136094, 33.13714887903236 57.514792899408285, 36.76975701052055 58.31360946745562, 39.59595749111323 59.11242603550296, 32.46504010147917 59.91124260355029, 26.64729594816995 60.710059171597635, 25.498669853550254 61.50887573964497, 11.094352723342988 62.307692307692314, 7.270025072102841 63.10650887573964, 10.171322346687242 63.90532544378698, 0.0 64.70414201183432, 2.859556729896342 65.50295857988165, 16.520978529769106 66.30177514792899, 10.246779261708374 67.10059171597634, 11.108354801315144 67.89940828402366, 6.901515188089731 68.69822485207101, 13.739152519651942 69.49704142011834, 13.551026013505417 70.29585798816568, 10.601144178752653 71.09467455621302, 9.690102249213298 71.89349112426036, 11.184023113203018 72.6923076923077, 9.949352699301384 73.49112426035504, 9.181485945310211 74.28994082840237, 8.813085734395942 75.0887573964497, 10.705682576521545 75.88757396449704, 9.525426307922649 76.68639053254438, 8.375160677660284 77.48520710059172, 13.651385123873414 78.28402366863905, 16.721231828085813 79.0828402366864, 25.02245744760924 79.88165680473374, 31.25388637138562 80.68047337278107, 26.7910425229692 81.4792899408284, 33.086227515366055 82.27810650887574, 32.897490959492885 83.07692307692308, 31.949862797953806 83.87573964497041, 32.482955547478895 84.67455621301775, 29.3121919794944 85.4733727810651, 27.885660598701033 86.27218934911244, 25.92581382065558 87.07100591715975, 25.753826318876243 87.8698224852071, 27.154843712332834 88.66863905325444, 26.303042936488858 89.46745562130178, 28.51429415098249 90.26627218934911, 31.445177049148924 91.06508875739645, 30.057285336384652 91.8639053254438, 32.63617258204129 92.66272189349112, 34.415026424903445 93.46153846153845, 29.008665813893618 94.2603550295858, 28.330727876423094 95.05917159763314, 27.737384623820695 95.85798816568047, 29.1792096225306 96.65680473372781, 27.869102344340714 97.45562130177515, 26.884846365498703 98.2544378698225, 41.48580061789072 99.05325443786982, 36.84666256316718 99.85207100591715, 36.63874910312339 100.6508875739645, 38.00420788360772 101.44970414201183, 32.20123080450797 102.24852071005917, 35.64802979748024 103.04733727810651, 32.76457449859711 103.84615384615385, 29.52634014580921 104.64497041420118, 31.106318499990742 105.44378698224853, 30.76704001010154 106.24260355029585, 31.37235226193807 107.0414201183432, 30.833937964118203 107.84023668639053, 29.58637171153343 108.63905325443787, 29.001084547251654 109.43786982248521, 29.60865955559927 110.23668639053254, 30.63442848121158 111.03550295857988, 29.891362608506462 111.83431952662723, 30.948926287679996 112.63313609467457, 32.16137568374162 113.43195266272188, 32.31168505220271 114.23076923076923, 31.880203163718708 115.02958579881657, 31.46995722241042 115.82840236686391, 32.700364574860075 116.62721893491124, 31.569560994519648 117.42603550295858, 30.422592787250263 118.22485207100593, 30.81211193908993 119.02366863905324, 31.386544072855294 119.82248520710058, 32.781948343992084 120.62130177514793, 32.90681684344608 121.42011834319527, 31.736126952189558 122.2189349112426, 31.896757712954777 123.01775147928994, 31.595227252462998 123.81656804733728, 32.2565498453861 124.61538461538463, 32.93230731500344 125.41420118343194, 33.3930653228935 126.21301775147928, 33.709469837651646 127.01183431952663, 33.26104500276944 127.81065088757396, 32.61805344004236 128.60946745562129, 31.953280973113017 129.40828402366864, 32.09835140210479 130.20710059171597, 31.647244390904156 131.0059171597633, 31.292181322244865 131.80473372781066, 30.64879951965388 132.60355029585799, 30.52460394416619 133.40236686390534, 28.994135678859738 134.20118343195267, 30.08541585828552" fill="none" stroke="#ed5565" stroke-width="1.25"/>

</svg>